<?xml version="1.0" encoding="utf-8"?>
<!-- Generator: Adobe Illustrator 16.0.0, SVG Export Plug-In . SVG Version: 6.00 Build 0)  -->
<!DOCTYPE svg PUBLIC "-//W3C//DTD SVG 1.1//EN" "http://www.w3.org/Graphics/SVG/1.1/DTD/svg11.dtd">
<svg version="1.1" id="Layer_1" xmlns="http://www.w3.org/2000/svg" xmlns:xlink="http://www.w3.org/1999/xlink" x="0px" y="0px"
	 width="266px" height="156px" viewBox="0 0 266 156" enable-background="new 0 0 266 156" xml:space="preserve">
<path display="none" fill="#25893E" d="M-0.569,133.934l35.383-32.661L22.103,89.421l-22.647,21.144L-0.56,83.171l7.98-7.44
	l-7.98-7.44l0.016-27.394L22.103,62.04l12.711-11.851L-0.569,17.527l0.017-27.212l50.316,46.397
	c15.25-12.51,54.914-40.775,101.727-40.775c65.878,0,108.872,44.992,110.67,46.906l5.697,6.066l-4.93,6.703
	c-0.311,0.422-6.979,9.408-18.999,20.115c11.735,10.438,18.221,19.062,18.996,20.115l4.933,6.708l-5.698,6.066
	c-1.797,1.914-44.792,46.905-110.669,46.905c-46.814,0-86.478-28.265-101.727-40.775l-50.316,46.397L-0.569,133.934z
	 M64.167,100.682c14.207,11.364,48.301,34.842,87.329,34.842c43.354,0,76.284-23.415,89.523-34.595
	c-3.12-3.367-7.562-7.817-13.167-12.563c-23.799,16.473-50.133,25.157-76.398,25.157c-23.869,0-48.474-8.517-73.14-25.317
	C72.452,92.894,67.631,97.313,64.167,100.682z M95.96,75.73c19.131,11.811,37.771,17.792,55.493,17.792
	c20.269,0,40.114-5.98,59.092-17.792c-18.978-11.812-38.823-17.792-59.092-17.792C133.731,57.938,115.092,63.92,95.96,75.73z
	 M49.155,87.296c3.129-3.089,7.442-7.138,12.72-11.565c-5.277-4.428-9.591-8.477-12.72-11.565L36.767,75.73L49.155,87.296z
	 M64.167,50.779c3.465,3.368,8.285,7.787,14.147,12.477c24.667-16.801,49.271-25.317,73.14-25.317
	c26.267,0,52.601,8.685,76.398,25.157c5.604-4.744,10.046-9.195,13.167-12.563c-13.237-11.18-46.165-34.594-89.523-34.594
	C112.463,15.938,78.372,39.416,64.167,50.779z"/>
<path display="none" fill="#268943" d="M1.431,134.809l36.323-33.529L22.102,86.685L1.453,105.964L1.44,84.04l8.913-8.309
	L1.44,67.421l0.013-21.924l20.65,19.279l15.652-14.595L1.431,16.652L1.445-5.123l48.249,44.491
	c13.973-11.707,54.176-41.43,101.797-41.43c65.021,0,107.438,44.386,109.212,46.275l4.559,4.852l-3.944,5.363
	c-0.32,0.435-7.503,10.104-20.419,21.302c12.916,11.197,20.098,20.867,20.417,21.299l3.946,5.366l-4.56,4.853
	c-1.773,1.889-44.189,46.275-109.211,46.275c-47.623,0-87.825-29.724-101.797-41.431L1.445,156.583L1.431,134.809z M61.17,100.826
	c13.167,10.831,48.97,36.697,90.326,36.697c45.83,0,80.151-25.751,92.391-36.419c-3.357-3.738-8.766-9.316-15.925-15.256
	c-23.787,16.805-50.193,25.675-76.508,25.675c-23.551,0-47.876-8.467-72.299-25.165c-0.31-0.212-0.619-0.425-0.926-0.638
	C70.793,91.573,64.911,97.096,61.17,100.826z M92.211,75.73c20.394,13.137,40.305,19.792,59.242,19.792
	c21.6,0,42.711-6.656,62.811-19.792c-20.1-13.136-41.211-19.792-62.811-19.792C132.518,55.938,112.606,62.594,92.211,75.73z
	 M49.201,90.075c3.462-3.493,8.882-8.667,15.806-14.345c-6.924-5.678-12.344-10.852-15.806-14.345L33.836,75.73L49.201,90.075z
	 M61.17,50.635c3.741,3.73,9.624,9.253,17.059,15.106c0.307-0.213,0.616-0.425,0.926-0.637
	c24.423-16.699,48.748-25.166,72.299-25.166c26.315,0,52.722,8.87,76.508,25.675c7.158-5.939,12.566-11.517,15.925-15.256
	c-12.238-10.668-46.561-36.419-92.391-36.419C110.14,13.938,74.337,39.804,61.17,50.635z"/>
<path fill="#00AF00" d="M239.5,78c14.797-12.288,22.942-23.26,23.326-23.78l2.539-3.453l-2.936-3.125
	c-1.79-1.907-44.617-46.704-110.273-46.704c-50.399,0-92.398,32.816-104.966,43.727L0.644,1.745L0.635,15.776l38.878,35.888
	L18.84,70.94L0.653,53.96L0.644,68.095L11.269,78L0.644,87.905l0.009,14.135L18.839,85.06l20.674,19.277L0.635,140.223l0.009,14.032
	l46.546-42.92c12.568,10.911,54.567,43.727,104.966,43.727c65.656,0,108.483-44.798,110.273-46.705l2.936-3.125l-2.539-3.453
	C262.442,101.259,254.296,90.288,239.5,78z M152.161,11.242c51.348,0,88.697,30.405,99.538,40.35
	c-3.627,4.248-10.67,11.859-20.629,19.877c-24.467-17.824-51.708-27.255-78.951-27.255c-23.632,0-48.108,8.543-72.749,25.39
	c-0.946,0.647-1.877,1.296-2.795,1.947c-10.222-7.858-17.896-15.331-22.027-19.622C66.929,41.274,105.942,11.242,152.161,11.242z
	 M222.358,78c-17.495,12.193-41.449,23.483-70.239,23.483c-25.332,0-48.739-11.294-66.636-23.483
	c17.897-12.188,41.304-23.484,66.636-23.484C180.909,54.517,204.863,65.807,222.358,78z M46.866,97.105L26.402,78l20.464-19.105
	C51.045,63.27,58.351,70.389,67.977,78C58.351,85.611,51.045,92.73,46.866,97.105z M152.161,144.759
	c-46.219,0-85.231-30.033-97.612-40.687c4.13-4.29,11.805-11.763,22.027-19.622c0.917,0.651,1.849,1.3,2.795,1.947
	c24.64,16.847,49.116,25.389,72.749,25.389c27.243,0,54.484-9.432,78.951-27.255c9.958,8.018,17.002,15.629,20.629,19.876
	C240.858,114.354,203.508,144.759,152.161,144.759z"/>
</svg>
